<svg xmlns="http://www.w3.org/2000/svg" width="475.2" height="475.2" viewBox="0 0 475.2 475.2"><path fill="#444444" d="M405.6 69.6c-44.9-44.9-104.5-69.6-168-69.6s-123.1 24.7-168 69.6-69.6 104.5-69.6 168 24.7 123.1 69.6 168 104.5 69.6 168 69.6 123.1-24.7 168-69.6 69.6-104.5 69.6-168-24.7-123.1-69.6-168zm-19.1 316.9c-39.8 39.8-92.7 61.7-148.9 61.7s-109.1-21.9-148.9-61.7c-82.1-82.1-82.1-215.7 0-297.8 39.8-39.8 92.7-61.7 148.9-61.7s109.1 21.9 148.9 61.7c82.1 82.1 82.1 215.7 0 297.8zM372.08 251.18c3.68 0 7.14-1.48 9.55-3.89 2.47-2.47 3.96-5.8 3.89-9.55 0-7.5-6.01-13.51-13.51-13.51l-120.91-.13v-121.06c0-7.5-6.01-13.51-13.51-13.51s-13.51 6.01-13.51 13.51v148.06M224.09 251.11M89.52 237.6"/></svg>
